{"title":"Tarzan 2013 BDRip XViD CAM AUDIO-FiNGERBLaST","uid":10091533,"size":1396409883,"categoryP":"video","categoryS":"movies","magnet":"?xt=urn:btih:5e801d619a76abd19ec735bbbb8412a68eaaed82&amp;dn=Tarzan+2013+BDRip+XViD+CAM+AUDIO-FiNGERBLaST&amp;tr=udp%3A%2F%2Ftracker.openbittorrent.com%3A80&amp;tr=udp%3A%2F%2Fopen.demonii.com%3A1337&amp;tr=udp%3A%2F%2Ftracker.coppersurfer.tk%3A6969&amp;tr=udp%3A%2F%2Fexodus.desync.com%3A6969","seeders":1,"leechers":0,"uploader":"TeXTX","files":3,"time":1399164776,"description":"[img]http://img.moviepilot.com/assets/tarantulaV2/embedded_images/tarzanposter_1388414484.jpg[/img]\n\narzan 2013 BDRip XViD CAM AUDIO-FiNGERBLaST\n\nRELEASE DATE........: 4th april 2014\nDVD DATE............:N/A\nTHEATRE DATE........: 2nd May 2014 UK\nFOLDER SIZE...........: 1.30 GB\nSOURCE..............: Russian BR Many Thanks\nAUDIO...............: A Good Friend :bow: Many Thanks\n\nFormat                                   : AVI\nFormat/Info                              : Audio Video Interleave\nFile size                                : 1.29 GiB\nDuration                                 : 1h 34mn\nOverall bit rate                         : 1 946 Kbps\nWriting application                      : VirtualDubMod 1.5.10.3 | www.virtualdub-fr.org || (build 2550/release)\nWriting library                          : VirtualDub build 30091/release\n\nVideo\nID                                       : 0\nFormat                                   : MPEG-4 Visual\nFormat profile                           : Advanced Simple@L5\nFormat settings, BVOP                    : 1\nFormat settings, QPel                    : No\nFormat settings, GMC                     : No warppoints\nFormat settings, Matrix                  : Custom\nCodec ID                                 : XVID\nCodec ID/Hint                            : XviD\nDuration                                 : 1h 34mn\nBit rate                                 : 1 756 Kbps\nWidth                                    : 720 pixels\nHeight                                   : 304 pixels\nDisplay aspect ratio                     : 2.35:1\nFrame rate                               : 23.976 fps\nColor space                              : YUV\nChroma subsampling                       : 4:2:0\nBit depth                                : 8 bits\nScan type                                : Progressive\nCompression mode                         : Lossy\nBits/(Pixel*Frame)                       : 0.335\nStream size                              : 1.16 GiB (90%)\nWriting library                          : XviD 73\n\nAudio\nID                                       : 1\nFormat                                   : AC-3\nFormat/Info                              : Audio Coding 3\nMode extension                           : CM (complete main)\nFormat settings, Endianness              : Big\nCodec ID                                 : 2000\nDuration                                 : 1h 29mn\nBit rate mode                            : Constant\nBit rate                                 : 192 Kbps\nChannel(s)                               : 2 channels\nChannel positions                        : Front: L R\nSampling rate                            : 48.0 KHz\nBit depth                                : 16 bits\nCompression mode                         : Lossy\nStream size                              : 122 MiB (9%)\nAlignment                                : Aligned on interleaves\nInterleave, duration                     : 44 ms (1.06 video frame)\nInterleave, preload duration             : 512 ms\n\nPlot\n\nTarzan and Jane Porter face a mercenary army dispatched by the evil CEO of Greystoke Energies, a man who took over the company from Tarzan's parents, after they died in a plane crash.\n\nIMDB\n &lt;a href=&quot;\nhttp://www.imdb.com/title/tt1705952/&quot; rel=&quot;nofollow&quot; target=&quot;_NEW&quot;&gt;\nhttp://www.imdb.com/title/tt1705952/&lt;/a&gt;\n\nScreens\n\n[img]http://i.imgur.com/0proC5f.jpg[/img]\n[img]http://i.imgur.com/nLDySk7.jpg[/img]\n[img]http://i.imgur.com/oVYVsrZ.jpg[/img]","torrent":{"xt":"urn:btih:5e801d619a76abd19ec735bbbb8412a68eaaed82","amp;dn":"Tarzan+2013+BDRip+XViD+CAM+AUDIO-FiNGERBLaST","amp;tr":["udp%3A%2F%2Ftracker.openbittorrent.com%3A80","udp%3A%2F%2Fopen.demonii.com%3A1337","udp%3A%2F%2Ftracker.coppersurfer.tk%3A6969","udp%3A%2F%2Fexodus.desync.com%3A6969"],"infoHash":"5e801d619a76abd19ec735bbbb8412a68eaaed82","infoHashBuffer":{"type":"Buffer","data":[94,128,29,97,154,118,171,209,158,199,53,187,187,132,18,166,142,170,237,130]},"announce":[],"urlList":[]}}